<?xml version="1.0" encoding="ISO-8859-1" standalone="no"?>
<!DOCTYPE svg PUBLIC "-//W3C//DTD SVG 1.1//EN" "http://www.w3.org/Graphics/SVG/1.1/DTD/svg11.dtd">
<svg version="1.1" baseProfile="full" id="body" width="8in" height="8in" viewBox="0 0 1 1" preserveAspectRatio="none" xmlns="http://www.w3.org/2000/svg" xmlns:xlink="http://www.w3.org/1999/xlink" xmlns:ev="http://www.w3.org/2001/xml-events">
<title>SVG drawing</title>
<desc>This was produced by version 4.4 of GNU libplot, a free library for exporting 2-D vector graphics.</desc>
<rect id="background" x="0" y="0" width="1" height="1" stroke="none" fill="white"/>
<g id="content" transform="translate(-0.03125,1.1875) scale(1,-1) scale(0.0017361) " xml:space="preserve" stroke="black" stroke-linecap="butt" stroke-linejoin="miter" stroke-miterlimit="10.433" stroke-dasharray="none" stroke-dashoffset="0" stroke-opacity="1" fill="none" fill-rule="evenodd" fill-opacity="1" font-style="normal" font-variant="normal" font-weight="normal" font-stretch="normal" font-size-adjust="none" letter-spacing="normal" word-spacing="normal" text-anchor="start">
<polygon points="0,0 600,0 600,400 0,400 " stroke="#060808" stroke-width="0" fill="#060808" fill-rule="nonzero" />
<path d="M600,400 V318.37 C598.52,318.28,597.03,317.97,595.54,317.33 C590.97,319.03,586.37,314.85,581.75,315.98 C577.14,315.83,572.53,313.9,567.94,313.05 C563.35,313.35,558.77,308.81,554.24,310.42 C550.32,308.43,546.21,308.35,542.16,309.33 C538.09,310.01,534.06,308.77,530.26,307.11 C527.61,304.05,524.97,304.26,522.3,305.81 C519.61,305.73,516.91,305.87,514.11,305.87 C509.13,308.11,504.1,306.4,499.07,305.64 C494.04,304.58,489.02,307.75,484.06,306.08 C480.65,306.92,477.28,307.32,473.94,307.87 C470.57,307.61,467.23,308.67,463.83,309.72 C461.61,308.65,459.4,310.96,457.18,310.39 C454.98,311.57,452.76,312.21,450.52,311.12 C448.17,310.73,445.77,310.02,443.36,312.1 C440.96,312.79,438.53,313.51,436.15,312.29 C433.45,312.32,430.87,313.69,428.3,311.49 C425.72,309.43,423.13,309.89,420.38,311.05 C417.1,311,413.86,310.49,410.64,309.86 C407.42,309.62,404.22,309.39,401,308.03 C398.2,307.43,393.24,305.37,390.32,307.04 C389.69,308.17,388.64,308.44,388.38,308.12 C386.02,307.59,384.41,309.44,382.22,309.65 C380.47,308.7,379.77,310.04,377.68,312.29 C375.93,313.76,373.77,312.53,371.62,312.55 C369.46,313.55,367.3,313.58,365.53,312.23 C361.52,312.23,357.61,313.77,353.74,312.21 C349.86,312.97,346.03,312.81,342.15,311.12 C337.66,308.41,333.15,310.73,328.65,309.02 C324.14,309.3,319.62,309.43,315.08,307.41 C309.27,305.03,303.3,304.61,297.3,306.59 C291.29,305.02,285.23,307.82,279.24,307.53 C273.25,308.7,267.33,308.14,261.57,309.36 C257.71,307.95,253.86,308.53,249.98,310.67 C246.12,311.21,242.24,312.5,238.35,310.99 C234.79,311.39,233.1,309.31,229.54,308.41 C224.62,305.56,219.73,309.28,214.8,309.31 C209.89,308.46,204.98,311.99,200.01,309.72 C198.11,307.41,196.81,307.08,194.96,308.35 C192.96,307.7,190.71,309.15,188.44,308.09 C186.17,308.24,183.89,307.46,181.81,308.46 C177,306.8,171.9,307.06,166.8,306.32 C161.69,305.4,156.58,304.5,151.78,306.11 C149.62,306.5,147.6,308.93,145.58,308.64 C143.56,307.46,141.54,312.56,139.42,311.02 C137.3,313.03,134.91,311.44,132.53,311.31 C130.15,311.18,127.75,311.62,125.55,310.96 C123.23,312.66,120.67,312.97,118.13,311.23 C115.59,310.23,113.06,311.2,110.77,310.73 C108.71,308.03,106.62,308.17,104.51,308.98 C102.41,307.21,100.3,307.41,98.211,307.11 C95.871,305.92,93.539,307.46,91.199,305.9 C88.871,303.92,86.52,307.08,84.168,304.94 C81.418,304.34,78.68,303.62,76.012,303.12 C73.359,302.41,70.75,299.35,68.27,300.12 C65.461,296.58,62.988,298.85,60.48,298.4 C57.961,299.17,55.359,300.4,52.27,299.38 C49.219,301.01,46.961,297.87,44.391,300.46 C42.352,297.42,41.039,302.18,39.289,303.29 C37.441,302.55,35.988,308.14,34.219,308.49 C32.051,308.99,29.789,311.16,26.941,309.68 C24.898,309.25,22.418,311.68,19.961,309.3 C17.5,310.5,15.07,310.22,13.102,309.8 C11.121,308.73,10.461,313.14,8.2891,310.99 C5.3984,311.13,2.7891,310.99,0,310.44 V400 Z " stroke="white" stroke-width="0" fill="white" fill-rule="nonzero" />
<path d="M600,85.32 V0 H0 V89.109 C1.2188,89.379,2.3984,90.262,3.7695,91.25 C6.5703,92.41,9.3516,89.328,12.191,91.461 C16.031,89.988,20.07,95.871,24.082,92.828 C28.102,92.809,32.109,95.18,35.91,94.922 C40.32,97.012,44.609,100.52,48.93,96.32 C53.238,95.691,57.59,97.621,62.059,96.5 C67.23,96.738,72.441,97.141,77.57,95.34 C82.719,94.051,87.809,97.531,92.699,91.52 C97.48,93.949,102.29,91.102,107.15,89.129 C112.01,89.352,116.91,88.77,121.88,88.398 C124.34,87.398,126.75,85.941,129.17,87.969 C131.6,86.34,134.01,87.922,136.49,87.852 C139.29,89.109,142.04,89.609,144.81,87.102 C147.56,87.5,150.33,91.039,153.15,86.5 C157.61,87.641,162.05,86.809,166.49,86.57 C170.95,86.359,175.39,86.5,179.83,86.52 C184.72,82.352,189.63,85.621,194.56,86.84 C199.46,84.379,204.39,87.711,209.3,87.84 C214.22,89.398,219.1,91.512,223.94,89.371 C226.5,93.051,228.96,87.922,231.43,90.059 C233.87,84.262,236.35,93.121,238.89,90.27 C240.73,87.262,242.8,88.141,244.59,90.379 C248.05,92.488,251.66,88.801,255.29,92.68 C258.93,93.578,262.6,94.359,266.22,94.051 C269.94,94.27,273.59,90.941,277.26,95.27 C280.91,95.578,284.57,99.199,288.27,96.539 C292.74,97.781,297.17,96.879,301.59,97.238 C306.02,96.871,310.44,98.379,314.93,97.75 C319.42,93.789,323.93,101.4,328.42,97.719 C332.91,99.148,337.4,98.121,341.89,97.75 C344.34,97.328,346.28,96.852,348.15,96.449 C350.02,94.68,351.79,94.98,353.85,93.129 C355.88,93.41,357.94,88.012,360.03,89.219 C362.1,90.352,364.21,87.82,366.34,85.539 C368.96,84.91,371.7,83.281,374.48,82.59 C377.26,83.039,380.11,81.738,382.96,80.77 C385.7,82.238,388.85,79.5,392.04,78.488 C395.21,77.488,398.43,80.422,401.31,77.762 C403.4,78.441,405.09,78.949,407.2,79.121 C410.16,81.449,410.38,80.93,412.24,76.031 C413.75,77.52,415.34,74.141,416.93,71.34 C418.51,70.75,420.09,64.211,421.54,66.512 C423.02,64.898,424.34,60.48,425.79,60.801 C427.22,57.449,428.76,59.641,430.68,55.781 C432.67,51.398,435.17,54.141,437.71,53.949 C440.25,50.66,442.86,51.641,445.03,54.828 C448.14,52.34,451.15,56.73,454.17,56.84 C457.2,56.148,460.24,57.129,463.38,58.66 C466.34,55.648,469.32,62.172,472.28,60.039 C475.24,59.629,478.2,61.379,481.13,61.621 C485.46,64.391,489.81,64.531,494.15,64.262 C498.48,61.039,502.79,65.52,507.04,67.301 C511.32,64.859,515.59,73.02,519.74,71.871 C523.91,70.988,527.98,73.371,531.89,77.84 C535,75.82,535.88,81.719,539.44,80.27 C542.12,78.699,544.76,78.02,547.42,80.98 C550.07,78.738,552.73,76.988,555.47,81.559 C559.52,77.359,563.45,83.191,567.36,82.352 C571.25,82.738,575.13,80,579.09,84.199 C582.57,80.578,585.98,89.219,589.41,85.148 C592.83,80.551,596.26,88.59,599.8,85.289 C599.87,85.301,599.93,85.309,600,85.32 Z " stroke="white" stroke-width="0" fill="white" fill-rule="nonzero" />
</g>
</svg>
